<svg width="420" height="420" viewBox="0 0 420 420" fill="none" xmlns="http://www.w3.org/2000/svg">
<rect x="225.306" y="26.292" width="160" height="160" rx="22" transform="rotate(20 225.306 26.292)" fill="#FF4E66"/>
<rect x="225.306" y="26.292" width="160" height="160" rx="22" transform="rotate(20 225.306 26.292)" stroke="#0A0E15" stroke-width="14"/>
<path d="M272.086 111.78L257.232 106.373L261.053 95.8748L303.546 111.341L299.725 121.839L284.941 116.458L270.177 157.023L257.322 152.344L272.086 111.78Z" fill="#0A0E15"/>
<rect x="239.649" y="57.0532" width="12" height="12" rx="6" transform="rotate(20 239.649 57.0532)" fill="#0A0E15"/>
<rect x="205.447" y="151.022" width="12" height="12" rx="6" transform="rotate(20 205.447 151.022)" fill="#0A0E15"/>
<rect x="333.618" y="91.2554" width="12" height="12" rx="6" transform="rotate(20 333.618 91.2554)" fill="#0A0E15"/>
<rect x="299.417" y="185.225" width="12" height="12" rx="6" transform="rotate(20 299.417 185.225)" fill="#0A0E15"/>
<rect x="197.626" y="192.744" width="160" height="160" rx="22" transform="rotate(-8 197.626 192.744)" fill="#E6FF00"/>
<rect x="197.626" y="192.744" width="160" height="160" rx="22" transform="rotate(-8 197.626 192.744)" stroke="#0A0E15" stroke-width="14"/>
<path d="M267.19 236.65L280.737 234.746L286.745 277.494L310.678 274.13L312.233 285.194L274.753 290.461L267.19 236.65Z" fill="#0A0E15"/>
<rect x="224.732" y="213.17" width="12" height="12" rx="6" transform="rotate(-8 224.732 213.17)" fill="#0A0E15"/>
<rect x="238.649" y="312.197" width="12" height="12" rx="6" transform="rotate(-8 238.649 312.197)" fill="#0A0E15"/>
<rect x="323.759" y="199.253" width="12" height="12" rx="6" transform="rotate(-8 323.759 199.253)" fill="#0A0E15"/>
<rect x="337.677" y="298.28" width="12" height="12" rx="6" transform="rotate(-8 337.677 298.28)" fill="#0A0E15"/>
<rect x="111.875" y="178.195" width="160" height="160" rx="22" transform="rotate(26 111.875 178.195)" fill="#726BFF"/>
<rect x="111.875" y="178.195" width="160" height="160" rx="22" transform="rotate(26 111.875 178.195)" stroke="#0A0E15" stroke-width="14"/>
<path d="M135.322 248.777L150.35 256.106L145.199 292.152L145.335 292.219L170.569 265.968L185.597 273.298L161.776 322.138L150.163 316.474L164.989 286.077L164.852 286.01L140.942 311.977L132.335 307.779L138.076 272.95L137.939 272.884L123.113 303.281L111.501 297.617L135.322 248.777Z" fill="#0A0E15"/>
<rect x="122.925" y="210.287" width="12" height="12" rx="6" transform="rotate(26 122.925 210.287)" fill="#0A0E15"/>
<rect x="79.0879" y="300.167" width="12" height="12" rx="6" transform="rotate(26 79.0879 300.167)" fill="#0A0E15"/>
<rect x="212.804" y="254.124" width="12" height="12" rx="6" transform="rotate(26 212.804 254.124)" fill="#0A0E15"/>
<rect x="168.967" y="344.003" width="12" height="12" rx="6" transform="rotate(26 168.967 344.003)" fill="#0A0E15"/>
<rect x="25.5283" y="115.021" width="160" height="160" rx="22" transform="rotate(-30 25.5283 115.021)" fill="#01C4FF"/>
<rect x="25.5283" y="115.021" width="160" height="160" rx="22" transform="rotate(-30 25.5283 115.021)" stroke="#0A0E15" stroke-width="14"/>
<path d="M101.493 132.547L113.34 125.707L123.98 144.136L140.105 134.826L129.465 116.397L141.313 109.557L168.483 156.617L156.635 163.457L145.691 144.501L129.566 153.811L140.51 172.767L128.663 179.607L101.493 132.547Z" fill="#0A0E15"/>
<rect x="58.3125" y="123.806" width="12" height="12" rx="6" transform="rotate(-30 58.3125 123.806)" fill="#0A0E15"/>
<rect x="108.312" y="210.409" width="12" height="12" rx="6" transform="rotate(-30 108.312 210.409)" fill="#0A0E15"/>
<rect x="144.915" y="73.8062" width="12" height="12" rx="6" transform="rotate(-30 144.915 73.8062)" fill="#0A0E15"/>
<rect x="194.915" y="160.409" width="12" height="12" rx="6" transform="rotate(-30 194.915 160.409)" fill="#0A0E15"/>
</svg>
